G04 #@! TF.FileFunction,Copper,L2,Bot,Signal*
%FSLAX46Y46*%
G04 Gerber Fmt 4.6, Leading zero omitted, Abs format (unit mm)*
G04 Created by KiCad (PCBNEW 4.0.6-e0-6349~53~ubuntu14.04.1) date Mon Apr  3 19:06:30 2017*
%MOMM*%
%LPD*%
G01*
G04 APERTURE LIST*
%ADD10C,0.100000*%
%ADD11C,1.500000*%
%ADD12C,0.600000*%
%ADD13C,0.200000*%
G04 APERTURE END LIST*
D10*
D11*
X128000000Y-85990000D03*
X128000000Y-88530000D03*
X128000000Y-91070000D03*
X128000000Y-93610000D03*
X128000000Y-96150000D03*
X128000000Y-98690000D03*
X128000000Y-101230000D03*
X128000000Y-103770000D03*
X128000000Y-106310000D03*
X128000000Y-108850000D03*
X128000000Y-111390000D03*
X128000000Y-113930000D03*
X128000000Y-116470000D03*
X128000000Y-119010000D03*
X128000000Y-121550000D03*
X128000000Y-124090000D03*
X128000000Y-83450000D03*
X128000000Y-80910000D03*
D12*
X153600000Y-93600000D03*
X138600000Y-88400000D03*
X154200000Y-88400000D03*
X134000000Y-101200000D03*
X134000000Y-103600000D03*
X158400000Y-110600000D03*
X158400000Y-113200000D03*
D13*
X128000000Y-96150000D02*
X147150000Y-96150000D01*
X154200000Y-89100000D02*
X154200000Y-88400000D01*
X147150000Y-96150000D02*
X154200000Y-89100000D01*
X128000000Y-106310000D02*
X131990000Y-106310000D01*
X133200000Y-102000000D02*
X134000000Y-101200000D01*
X133200000Y-105100000D02*
X133200000Y-102000000D01*
X131990000Y-106310000D02*
X133200000Y-105100000D01*
X128000000Y-108850000D02*
X133150000Y-108850000D01*
X134000000Y-108000000D02*
X134000000Y-103600000D01*
X133150000Y-108850000D02*
X134000000Y-108000000D01*
X135210000Y-111390000D02*
X128000000Y-111390000D01*
X140400000Y-106200000D02*
X135210000Y-111390000D01*
X157600000Y-106200000D02*
X140400000Y-106200000D01*
X158400000Y-107000000D02*
X157600000Y-106200000D01*
X158400000Y-110600000D02*
X158400000Y-107000000D01*
X133235688Y-113930000D02*
X128000000Y-113930000D01*
X140565686Y-106600002D02*
X133235688Y-113930000D01*
X156400002Y-106600002D02*
X140565686Y-106600002D01*
X157400000Y-107600000D02*
X156400002Y-106600002D01*
X157400000Y-112200000D02*
X157400000Y-107600000D01*
X158400000Y-113200000D02*
X157400000Y-112200000D01*
G36*
X138037220Y-79410142D02*
X138068774Y-79431225D01*
X138089859Y-79462781D01*
X138112590Y-79577060D01*
X138188710Y-79959743D01*
X138247689Y-80102133D01*
X138464462Y-80426557D01*
X138518953Y-80481047D01*
X138573443Y-80535538D01*
X138897867Y-80752310D01*
X139040256Y-80811290D01*
X139040257Y-80811290D01*
X139422940Y-80887410D01*
X139461843Y-80887410D01*
X139500000Y-80895000D01*
X157961098Y-80895000D01*
X158228561Y-80948201D01*
X158422327Y-81077671D01*
X158551799Y-81271440D01*
X158605000Y-81538902D01*
X158605000Y-106611030D01*
X157896985Y-105903015D01*
X157760727Y-105811971D01*
X157600000Y-105780000D01*
X140400000Y-105780000D01*
X140239273Y-105811971D01*
X140103015Y-105903015D01*
X135036030Y-110970000D01*
X128984202Y-110970000D01*
X128907631Y-110784685D01*
X128606898Y-110483427D01*
X128213770Y-110320186D01*
X127788098Y-110319814D01*
X127394685Y-110482369D01*
X127093427Y-110783102D01*
X126930186Y-111176230D01*
X126929814Y-111601902D01*
X127092369Y-111995315D01*
X127393102Y-112296573D01*
X127786230Y-112459814D01*
X128211902Y-112460186D01*
X128605315Y-112297631D01*
X128906573Y-111996898D01*
X128984180Y-111810000D01*
X134761718Y-111810000D01*
X133061718Y-113510000D01*
X128984202Y-113510000D01*
X128907631Y-113324685D01*
X128606898Y-113023427D01*
X128213770Y-112860186D01*
X127788098Y-112859814D01*
X127394685Y-113022369D01*
X127093427Y-113323102D01*
X126930186Y-113716230D01*
X126929814Y-114141902D01*
X127092369Y-114535315D01*
X127393102Y-114836573D01*
X127786230Y-114999814D01*
X128211902Y-115000186D01*
X128605315Y-114837631D01*
X128906573Y-114536898D01*
X128984180Y-114350000D01*
X133235688Y-114350000D01*
X133396415Y-114318029D01*
X133532673Y-114226985D01*
X135959658Y-111800000D01*
X137400000Y-111800000D01*
X137400000Y-122300000D01*
X137406839Y-122336346D01*
X137428319Y-122369727D01*
X137461094Y-122392121D01*
X137500000Y-122400000D01*
X155000000Y-122400000D01*
X155036346Y-122393161D01*
X155069727Y-122371681D01*
X155092121Y-122338906D01*
X155100000Y-122300000D01*
X155100000Y-111800000D01*
X155093161Y-111763654D01*
X155071681Y-111730273D01*
X155038906Y-111707879D01*
X155000000Y-111700000D01*
X137500000Y-111700000D01*
X137463654Y-111706839D01*
X137430273Y-111728319D01*
X137407879Y-111761094D01*
X137400000Y-111800000D01*
X135959658Y-111800000D01*
X140739656Y-107020002D01*
X156226032Y-107020002D01*
X156980000Y-107773970D01*
X156980000Y-112200000D01*
X157011971Y-112360727D01*
X157103015Y-112496985D01*
X157780022Y-113173992D01*
X157779892Y-113322785D01*
X157874083Y-113550743D01*
X158048339Y-113725304D01*
X158276133Y-113819893D01*
X158522785Y-113820108D01*
X158605000Y-113786137D01*
X158605000Y-128961098D01*
X158551799Y-129228560D01*
X158422327Y-129422329D01*
X158228561Y-129551799D01*
X157961098Y-129605000D01*
X128038903Y-129605000D01*
X127388755Y-129475677D01*
X126870565Y-129129435D01*
X126524323Y-128611245D01*
X126395000Y-127961096D01*
X126395000Y-124301902D01*
X126929814Y-124301902D01*
X127092369Y-124695315D01*
X127393102Y-124996573D01*
X127786230Y-125159814D01*
X128211902Y-125160186D01*
X128605315Y-124997631D01*
X128906573Y-124696898D01*
X129069814Y-124303770D01*
X129070186Y-123878098D01*
X128907631Y-123484685D01*
X128606898Y-123183427D01*
X128213770Y-123020186D01*
X127788098Y-123019814D01*
X127394685Y-123182369D01*
X127093427Y-123483102D01*
X126930186Y-123876230D01*
X126929814Y-124301902D01*
X126395000Y-124301902D01*
X126395000Y-121761902D01*
X126929814Y-121761902D01*
X127092369Y-122155315D01*
X127393102Y-122456573D01*
X127786230Y-122619814D01*
X128211902Y-122620186D01*
X128605315Y-122457631D01*
X128906573Y-122156898D01*
X129069814Y-121763770D01*
X129070186Y-121338098D01*
X128907631Y-120944685D01*
X128606898Y-120643427D01*
X128213770Y-120480186D01*
X127788098Y-120479814D01*
X127394685Y-120642369D01*
X127093427Y-120943102D01*
X126930186Y-121336230D01*
X126929814Y-121761902D01*
X126395000Y-121761902D01*
X126395000Y-119221902D01*
X126929814Y-119221902D01*
X127092369Y-119615315D01*
X127393102Y-119916573D01*
X127786230Y-120079814D01*
X128211902Y-120080186D01*
X128605315Y-119917631D01*
X128906573Y-119616898D01*
X129069814Y-119223770D01*
X129070186Y-118798098D01*
X128907631Y-118404685D01*
X128606898Y-118103427D01*
X128213770Y-117940186D01*
X127788098Y-117939814D01*
X127394685Y-118102369D01*
X127093427Y-118403102D01*
X126930186Y-118796230D01*
X126929814Y-119221902D01*
X126395000Y-119221902D01*
X126395000Y-116681902D01*
X126929814Y-116681902D01*
X127092369Y-117075315D01*
X127393102Y-117376573D01*
X127786230Y-117539814D01*
X128211902Y-117540186D01*
X128605315Y-117377631D01*
X128906573Y-117076898D01*
X129069814Y-116683770D01*
X129070186Y-116258098D01*
X128907631Y-115864685D01*
X128606898Y-115563427D01*
X128213770Y-115400186D01*
X127788098Y-115399814D01*
X127394685Y-115562369D01*
X127093427Y-115863102D01*
X126930186Y-116256230D01*
X126929814Y-116681902D01*
X126395000Y-116681902D01*
X126395000Y-106521902D01*
X126929814Y-106521902D01*
X127092369Y-106915315D01*
X127393102Y-107216573D01*
X127786230Y-107379814D01*
X128211902Y-107380186D01*
X128605315Y-107217631D01*
X128906573Y-106916898D01*
X128984180Y-106730000D01*
X131990000Y-106730000D01*
X132150727Y-106698029D01*
X132286985Y-106606985D01*
X133496985Y-105396985D01*
X133580000Y-105272743D01*
X133580000Y-107826030D01*
X132976030Y-108430000D01*
X128984202Y-108430000D01*
X128907631Y-108244685D01*
X128606898Y-107943427D01*
X128213770Y-107780186D01*
X127788098Y-107779814D01*
X127394685Y-107942369D01*
X127093427Y-108243102D01*
X126930186Y-108636230D01*
X126929814Y-109061902D01*
X127092369Y-109455315D01*
X127393102Y-109756573D01*
X127786230Y-109919814D01*
X128211902Y-109920186D01*
X128605315Y-109757631D01*
X128906573Y-109456898D01*
X128984180Y-109270000D01*
X133150000Y-109270000D01*
X133310727Y-109238029D01*
X133446985Y-109146985D01*
X134296985Y-108296985D01*
X134332988Y-108243102D01*
X134388029Y-108160727D01*
X134393334Y-108134060D01*
X134420001Y-108000000D01*
X134420000Y-107999995D01*
X134420000Y-104056781D01*
X134525304Y-103951661D01*
X134619893Y-103723867D01*
X134620108Y-103477215D01*
X134525917Y-103249257D01*
X134351661Y-103074696D01*
X134123867Y-102980107D01*
X133877215Y-102979892D01*
X133649257Y-103074083D01*
X133620000Y-103103289D01*
X133620000Y-102173970D01*
X133973992Y-101819978D01*
X134122785Y-101820108D01*
X134350743Y-101725917D01*
X134525304Y-101551661D01*
X134619893Y-101323867D01*
X134620108Y-101077215D01*
X134525917Y-100849257D01*
X134351661Y-100674696D01*
X134123867Y-100580107D01*
X133877215Y-100579892D01*
X133649257Y-100674083D01*
X133474696Y-100848339D01*
X133380107Y-101076133D01*
X133379976Y-101226054D01*
X132903015Y-101703015D01*
X132811971Y-101839273D01*
X132780000Y-102000000D01*
X132780000Y-104926030D01*
X131816030Y-105890000D01*
X128984202Y-105890000D01*
X128907631Y-105704685D01*
X128606898Y-105403427D01*
X128213770Y-105240186D01*
X127788098Y-105239814D01*
X127394685Y-105402369D01*
X127093427Y-105703102D01*
X126930186Y-106096230D01*
X126929814Y-106521902D01*
X126395000Y-106521902D01*
X126395000Y-103981902D01*
X126929814Y-103981902D01*
X127092369Y-104375315D01*
X127393102Y-104676573D01*
X127786230Y-104839814D01*
X128211902Y-104840186D01*
X128605315Y-104677631D01*
X128906573Y-104376898D01*
X129069814Y-103983770D01*
X129070186Y-103558098D01*
X128907631Y-103164685D01*
X128606898Y-102863427D01*
X128213770Y-102700186D01*
X127788098Y-102699814D01*
X127394685Y-102862369D01*
X127093427Y-103163102D01*
X126930186Y-103556230D01*
X126929814Y-103981902D01*
X126395000Y-103981902D01*
X126395000Y-101441902D01*
X126929814Y-101441902D01*
X127092369Y-101835315D01*
X127393102Y-102136573D01*
X127786230Y-102299814D01*
X128211902Y-102300186D01*
X128605315Y-102137631D01*
X128906573Y-101836898D01*
X129069814Y-101443770D01*
X129070186Y-101018098D01*
X128907631Y-100624685D01*
X128606898Y-100323427D01*
X128213770Y-100160186D01*
X127788098Y-100159814D01*
X127394685Y-100322369D01*
X127093427Y-100623102D01*
X126930186Y-101016230D01*
X126929814Y-101441902D01*
X126395000Y-101441902D01*
X126395000Y-99302553D01*
X127422802Y-99302553D01*
X127511032Y-99405539D01*
X127822078Y-99538192D01*
X128160210Y-99541715D01*
X128473952Y-99415573D01*
X128488968Y-99405539D01*
X128577198Y-99302553D01*
X128000000Y-98725355D01*
X127422802Y-99302553D01*
X126395000Y-99302553D01*
X126395000Y-98850210D01*
X127148285Y-98850210D01*
X127274427Y-99163952D01*
X127284461Y-99178968D01*
X127387447Y-99267198D01*
X127964645Y-98690000D01*
X128035355Y-98690000D01*
X128612553Y-99267198D01*
X128715539Y-99178968D01*
X128848192Y-98867922D01*
X128851715Y-98529790D01*
X128725573Y-98216048D01*
X128715539Y-98201032D01*
X128612553Y-98112802D01*
X128035355Y-98690000D01*
X127964645Y-98690000D01*
X127387447Y-98112802D01*
X127284461Y-98201032D01*
X127151808Y-98512078D01*
X127148285Y-98850210D01*
X126395000Y-98850210D01*
X126395000Y-98077447D01*
X127422802Y-98077447D01*
X128000000Y-98654645D01*
X128577198Y-98077447D01*
X128488968Y-97974461D01*
X128177922Y-97841808D01*
X127839790Y-97838285D01*
X127526048Y-97964427D01*
X127511032Y-97974461D01*
X127422802Y-98077447D01*
X126395000Y-98077447D01*
X126395000Y-96361902D01*
X126929814Y-96361902D01*
X127092369Y-96755315D01*
X127393102Y-97056573D01*
X127786230Y-97219814D01*
X128211902Y-97220186D01*
X128605315Y-97057631D01*
X128906573Y-96756898D01*
X128984180Y-96570000D01*
X147150000Y-96570000D01*
X147310727Y-96538029D01*
X147446985Y-96446985D01*
X154496985Y-89396985D01*
X154588029Y-89260727D01*
X154620000Y-89100000D01*
X154620000Y-88856781D01*
X154725304Y-88751661D01*
X154819893Y-88523867D01*
X154820108Y-88277215D01*
X154725917Y-88049257D01*
X154551661Y-87874696D01*
X154323867Y-87780107D01*
X154077215Y-87779892D01*
X153849257Y-87874083D01*
X153674696Y-88048339D01*
X153580107Y-88276133D01*
X153579892Y-88522785D01*
X153674083Y-88750743D01*
X153780000Y-88856845D01*
X153780000Y-88926030D01*
X146976030Y-95730000D01*
X128984202Y-95730000D01*
X128907631Y-95544685D01*
X128606898Y-95243427D01*
X128213770Y-95080186D01*
X127788098Y-95079814D01*
X127394685Y-95242369D01*
X127093427Y-95543102D01*
X126930186Y-95936230D01*
X126929814Y-96361902D01*
X126395000Y-96361902D01*
X126395000Y-93821902D01*
X126929814Y-93821902D01*
X127092369Y-94215315D01*
X127393102Y-94516573D01*
X127786230Y-94679814D01*
X128211902Y-94680186D01*
X128605315Y-94517631D01*
X128906573Y-94216898D01*
X129069814Y-93823770D01*
X129070186Y-93398098D01*
X128907631Y-93004685D01*
X128606898Y-92703427D01*
X128213770Y-92540186D01*
X127788098Y-92539814D01*
X127394685Y-92702369D01*
X127093427Y-93003102D01*
X126930186Y-93396230D01*
X126929814Y-93821902D01*
X126395000Y-93821902D01*
X126395000Y-91281902D01*
X126929814Y-91281902D01*
X127092369Y-91675315D01*
X127393102Y-91976573D01*
X127786230Y-92139814D01*
X128211902Y-92140186D01*
X128605315Y-91977631D01*
X128906573Y-91676898D01*
X129069814Y-91283770D01*
X129070186Y-90858098D01*
X128907631Y-90464685D01*
X128606898Y-90163427D01*
X128213770Y-90000186D01*
X127788098Y-89999814D01*
X127394685Y-90162369D01*
X127093427Y-90463102D01*
X126930186Y-90856230D01*
X126929814Y-91281902D01*
X126395000Y-91281902D01*
X126395000Y-88741902D01*
X126929814Y-88741902D01*
X127092369Y-89135315D01*
X127393102Y-89436573D01*
X127786230Y-89599814D01*
X128211902Y-89600186D01*
X128605315Y-89437631D01*
X128906573Y-89136898D01*
X129069814Y-88743770D01*
X129070186Y-88318098D01*
X128907631Y-87924685D01*
X128606898Y-87623427D01*
X128213770Y-87460186D01*
X127788098Y-87459814D01*
X127394685Y-87622369D01*
X127093427Y-87923102D01*
X126930186Y-88316230D01*
X126929814Y-88741902D01*
X126395000Y-88741902D01*
X126395000Y-86602553D01*
X127422802Y-86602553D01*
X127511032Y-86705539D01*
X127822078Y-86838192D01*
X128160210Y-86841715D01*
X128473952Y-86715573D01*
X128488968Y-86705539D01*
X128577198Y-86602553D01*
X128000000Y-86025355D01*
X127422802Y-86602553D01*
X126395000Y-86602553D01*
X126395000Y-86150210D01*
X127148285Y-86150210D01*
X127274427Y-86463952D01*
X127284461Y-86478968D01*
X127387447Y-86567198D01*
X127964645Y-85990000D01*
X128035355Y-85990000D01*
X128612553Y-86567198D01*
X128715539Y-86478968D01*
X128848192Y-86167922D01*
X128851715Y-85829790D01*
X128725573Y-85516048D01*
X128715539Y-85501032D01*
X128612553Y-85412802D01*
X128035355Y-85990000D01*
X127964645Y-85990000D01*
X127387447Y-85412802D01*
X127284461Y-85501032D01*
X127151808Y-85812078D01*
X127148285Y-86150210D01*
X126395000Y-86150210D01*
X126395000Y-85377447D01*
X127422802Y-85377447D01*
X128000000Y-85954645D01*
X128577198Y-85377447D01*
X128488968Y-85274461D01*
X128177922Y-85141808D01*
X127839790Y-85138285D01*
X127526048Y-85264427D01*
X127511032Y-85274461D01*
X127422802Y-85377447D01*
X126395000Y-85377447D01*
X126395000Y-83661902D01*
X126929814Y-83661902D01*
X127092369Y-84055315D01*
X127393102Y-84356573D01*
X127786230Y-84519814D01*
X128211902Y-84520186D01*
X128605315Y-84357631D01*
X128906573Y-84056898D01*
X129069814Y-83663770D01*
X129070186Y-83238098D01*
X128907631Y-82844685D01*
X128606898Y-82543427D01*
X128213770Y-82380186D01*
X127788098Y-82379814D01*
X127394685Y-82542369D01*
X127093427Y-82843102D01*
X126930186Y-83236230D01*
X126929814Y-83661902D01*
X126395000Y-83661902D01*
X126395000Y-81121902D01*
X126929814Y-81121902D01*
X127092369Y-81515315D01*
X127393102Y-81816573D01*
X127786230Y-81979814D01*
X128211902Y-81980186D01*
X128605315Y-81817631D01*
X128906573Y-81516898D01*
X129069814Y-81123770D01*
X129070186Y-80698098D01*
X128907631Y-80304685D01*
X128606898Y-80003427D01*
X128213770Y-79840186D01*
X127788098Y-79839814D01*
X127394685Y-80002369D01*
X127093427Y-80303102D01*
X126930186Y-80696230D01*
X126929814Y-81121902D01*
X126395000Y-81121902D01*
X126395000Y-81038904D01*
X126524323Y-80388755D01*
X126870565Y-79870565D01*
X127388755Y-79524323D01*
X128038903Y-79395000D01*
X137961098Y-79395000D01*
X138037220Y-79410142D01*
X138037220Y-79410142D01*
G37*
X138037220Y-79410142D02*
X138068774Y-79431225D01*
X138089859Y-79462781D01*
X138112590Y-79577060D01*
X138188710Y-79959743D01*
X138247689Y-80102133D01*
X138464462Y-80426557D01*
X138518953Y-80481047D01*
X138573443Y-80535538D01*
X138897867Y-80752310D01*
X139040256Y-80811290D01*
X139040257Y-80811290D01*
X139422940Y-80887410D01*
X139461843Y-80887410D01*
X139500000Y-80895000D01*
X157961098Y-80895000D01*
X158228561Y-80948201D01*
X158422327Y-81077671D01*
X158551799Y-81271440D01*
X158605000Y-81538902D01*
X158605000Y-106611030D01*
X157896985Y-105903015D01*
X157760727Y-105811971D01*
X157600000Y-105780000D01*
X140400000Y-105780000D01*
X140239273Y-105811971D01*
X140103015Y-105903015D01*
X135036030Y-110970000D01*
X128984202Y-110970000D01*
X128907631Y-110784685D01*
X128606898Y-110483427D01*
X128213770Y-110320186D01*
X127788098Y-110319814D01*
X127394685Y-110482369D01*
X127093427Y-110783102D01*
X126930186Y-111176230D01*
X126929814Y-111601902D01*
X127092369Y-111995315D01*
X127393102Y-112296573D01*
X127786230Y-112459814D01*
X128211902Y-112460186D01*
X128605315Y-112297631D01*
X128906573Y-111996898D01*
X128984180Y-111810000D01*
X134761718Y-111810000D01*
X133061718Y-113510000D01*
X128984202Y-113510000D01*
X128907631Y-113324685D01*
X128606898Y-113023427D01*
X128213770Y-112860186D01*
X127788098Y-112859814D01*
X127394685Y-113022369D01*
X127093427Y-113323102D01*
X126930186Y-113716230D01*
X126929814Y-114141902D01*
X127092369Y-114535315D01*
X127393102Y-114836573D01*
X127786230Y-114999814D01*
X128211902Y-115000186D01*
X128605315Y-114837631D01*
X128906573Y-114536898D01*
X128984180Y-114350000D01*
X133235688Y-114350000D01*
X133396415Y-114318029D01*
X133532673Y-114226985D01*
X135959658Y-111800000D01*
X137400000Y-111800000D01*
X137400000Y-122300000D01*
X137406839Y-122336346D01*
X137428319Y-122369727D01*
X137461094Y-122392121D01*
X137500000Y-122400000D01*
X155000000Y-122400000D01*
X155036346Y-122393161D01*
X155069727Y-122371681D01*
X155092121Y-122338906D01*
X155100000Y-122300000D01*
X155100000Y-111800000D01*
X155093161Y-111763654D01*
X155071681Y-111730273D01*
X155038906Y-111707879D01*
X155000000Y-111700000D01*
X137500000Y-111700000D01*
X137463654Y-111706839D01*
X137430273Y-111728319D01*
X137407879Y-111761094D01*
X137400000Y-111800000D01*
X135959658Y-111800000D01*
X140739656Y-107020002D01*
X156226032Y-107020002D01*
X156980000Y-107773970D01*
X156980000Y-112200000D01*
X157011971Y-112360727D01*
X157103015Y-112496985D01*
X157780022Y-113173992D01*
X157779892Y-113322785D01*
X157874083Y-113550743D01*
X158048339Y-113725304D01*
X158276133Y-113819893D01*
X158522785Y-113820108D01*
X158605000Y-113786137D01*
X158605000Y-128961098D01*
X158551799Y-129228560D01*
X158422327Y-129422329D01*
X158228561Y-129551799D01*
X157961098Y-129605000D01*
X128038903Y-129605000D01*
X127388755Y-129475677D01*
X126870565Y-129129435D01*
X126524323Y-128611245D01*
X126395000Y-127961096D01*
X126395000Y-124301902D01*
X126929814Y-124301902D01*
X127092369Y-124695315D01*
X127393102Y-124996573D01*
X127786230Y-125159814D01*
X128211902Y-125160186D01*
X128605315Y-124997631D01*
X128906573Y-124696898D01*
X129069814Y-124303770D01*
X129070186Y-123878098D01*
X128907631Y-123484685D01*
X128606898Y-123183427D01*
X128213770Y-123020186D01*
X127788098Y-123019814D01*
X127394685Y-123182369D01*
X127093427Y-123483102D01*
X126930186Y-123876230D01*
X126929814Y-124301902D01*
X126395000Y-124301902D01*
X126395000Y-121761902D01*
X126929814Y-121761902D01*
X127092369Y-122155315D01*
X127393102Y-122456573D01*
X127786230Y-122619814D01*
X128211902Y-122620186D01*
X128605315Y-122457631D01*
X128906573Y-122156898D01*
X129069814Y-121763770D01*
X129070186Y-121338098D01*
X128907631Y-120944685D01*
X128606898Y-120643427D01*
X128213770Y-120480186D01*
X127788098Y-120479814D01*
X127394685Y-120642369D01*
X127093427Y-120943102D01*
X126930186Y-121336230D01*
X126929814Y-121761902D01*
X126395000Y-121761902D01*
X126395000Y-119221902D01*
X126929814Y-119221902D01*
X127092369Y-119615315D01*
X127393102Y-119916573D01*
X127786230Y-120079814D01*
X128211902Y-120080186D01*
X128605315Y-119917631D01*
X128906573Y-119616898D01*
X129069814Y-119223770D01*
X129070186Y-118798098D01*
X128907631Y-118404685D01*
X128606898Y-118103427D01*
X128213770Y-117940186D01*
X127788098Y-117939814D01*
X127394685Y-118102369D01*
X127093427Y-118403102D01*
X126930186Y-118796230D01*
X126929814Y-119221902D01*
X126395000Y-119221902D01*
X126395000Y-116681902D01*
X126929814Y-116681902D01*
X127092369Y-117075315D01*
X127393102Y-117376573D01*
X127786230Y-117539814D01*
X128211902Y-117540186D01*
X128605315Y-117377631D01*
X128906573Y-117076898D01*
X129069814Y-116683770D01*
X129070186Y-116258098D01*
X128907631Y-115864685D01*
X128606898Y-115563427D01*
X128213770Y-115400186D01*
X127788098Y-115399814D01*
X127394685Y-115562369D01*
X127093427Y-115863102D01*
X126930186Y-116256230D01*
X126929814Y-116681902D01*
X126395000Y-116681902D01*
X126395000Y-106521902D01*
X126929814Y-106521902D01*
X127092369Y-106915315D01*
X127393102Y-107216573D01*
X127786230Y-107379814D01*
X128211902Y-107380186D01*
X128605315Y-107217631D01*
X128906573Y-106916898D01*
X128984180Y-106730000D01*
X131990000Y-106730000D01*
X132150727Y-106698029D01*
X132286985Y-106606985D01*
X133496985Y-105396985D01*
X133580000Y-105272743D01*
X133580000Y-107826030D01*
X132976030Y-108430000D01*
X128984202Y-108430000D01*
X128907631Y-108244685D01*
X128606898Y-107943427D01*
X128213770Y-107780186D01*
X127788098Y-107779814D01*
X127394685Y-107942369D01*
X127093427Y-108243102D01*
X126930186Y-108636230D01*
X126929814Y-109061902D01*
X127092369Y-109455315D01*
X127393102Y-109756573D01*
X127786230Y-109919814D01*
X128211902Y-109920186D01*
X128605315Y-109757631D01*
X128906573Y-109456898D01*
X128984180Y-109270000D01*
X133150000Y-109270000D01*
X133310727Y-109238029D01*
X133446985Y-109146985D01*
X134296985Y-108296985D01*
X134332988Y-108243102D01*
X134388029Y-108160727D01*
X134393334Y-108134060D01*
X134420001Y-108000000D01*
X134420000Y-107999995D01*
X134420000Y-104056781D01*
X134525304Y-103951661D01*
X134619893Y-103723867D01*
X134620108Y-103477215D01*
X134525917Y-103249257D01*
X134351661Y-103074696D01*
X134123867Y-102980107D01*
X133877215Y-102979892D01*
X133649257Y-103074083D01*
X133620000Y-103103289D01*
X133620000Y-102173970D01*
X133973992Y-101819978D01*
X134122785Y-101820108D01*
X134350743Y-101725917D01*
X134525304Y-101551661D01*
X134619893Y-101323867D01*
X134620108Y-101077215D01*
X134525917Y-100849257D01*
X134351661Y-100674696D01*
X134123867Y-100580107D01*
X133877215Y-100579892D01*
X133649257Y-100674083D01*
X133474696Y-100848339D01*
X133380107Y-101076133D01*
X133379976Y-101226054D01*
X132903015Y-101703015D01*
X132811971Y-101839273D01*
X132780000Y-102000000D01*
X132780000Y-104926030D01*
X131816030Y-105890000D01*
X128984202Y-105890000D01*
X128907631Y-105704685D01*
X128606898Y-105403427D01*
X128213770Y-105240186D01*
X127788098Y-105239814D01*
X127394685Y-105402369D01*
X127093427Y-105703102D01*
X126930186Y-106096230D01*
X126929814Y-106521902D01*
X126395000Y-106521902D01*
X126395000Y-103981902D01*
X126929814Y-103981902D01*
X127092369Y-104375315D01*
X127393102Y-104676573D01*
X127786230Y-104839814D01*
X128211902Y-104840186D01*
X128605315Y-104677631D01*
X128906573Y-104376898D01*
X129069814Y-103983770D01*
X129070186Y-103558098D01*
X128907631Y-103164685D01*
X128606898Y-102863427D01*
X128213770Y-102700186D01*
X127788098Y-102699814D01*
X127394685Y-102862369D01*
X127093427Y-103163102D01*
X126930186Y-103556230D01*
X126929814Y-103981902D01*
X126395000Y-103981902D01*
X126395000Y-101441902D01*
X126929814Y-101441902D01*
X127092369Y-101835315D01*
X127393102Y-102136573D01*
X127786230Y-102299814D01*
X128211902Y-102300186D01*
X128605315Y-102137631D01*
X128906573Y-101836898D01*
X129069814Y-101443770D01*
X129070186Y-101018098D01*
X128907631Y-100624685D01*
X128606898Y-100323427D01*
X128213770Y-100160186D01*
X127788098Y-100159814D01*
X127394685Y-100322369D01*
X127093427Y-100623102D01*
X126930186Y-101016230D01*
X126929814Y-101441902D01*
X126395000Y-101441902D01*
X126395000Y-99302553D01*
X127422802Y-99302553D01*
X127511032Y-99405539D01*
X127822078Y-99538192D01*
X128160210Y-99541715D01*
X128473952Y-99415573D01*
X128488968Y-99405539D01*
X128577198Y-99302553D01*
X128000000Y-98725355D01*
X127422802Y-99302553D01*
X126395000Y-99302553D01*
X126395000Y-98850210D01*
X127148285Y-98850210D01*
X127274427Y-99163952D01*
X127284461Y-99178968D01*
X127387447Y-99267198D01*
X127964645Y-98690000D01*
X128035355Y-98690000D01*
X128612553Y-99267198D01*
X128715539Y-99178968D01*
X128848192Y-98867922D01*
X128851715Y-98529790D01*
X128725573Y-98216048D01*
X128715539Y-98201032D01*
X128612553Y-98112802D01*
X128035355Y-98690000D01*
X127964645Y-98690000D01*
X127387447Y-98112802D01*
X127284461Y-98201032D01*
X127151808Y-98512078D01*
X127148285Y-98850210D01*
X126395000Y-98850210D01*
X126395000Y-98077447D01*
X127422802Y-98077447D01*
X128000000Y-98654645D01*
X128577198Y-98077447D01*
X128488968Y-97974461D01*
X128177922Y-97841808D01*
X127839790Y-97838285D01*
X127526048Y-97964427D01*
X127511032Y-97974461D01*
X127422802Y-98077447D01*
X126395000Y-98077447D01*
X126395000Y-96361902D01*
X126929814Y-96361902D01*
X127092369Y-96755315D01*
X127393102Y-97056573D01*
X127786230Y-97219814D01*
X128211902Y-97220186D01*
X128605315Y-97057631D01*
X128906573Y-96756898D01*
X128984180Y-96570000D01*
X147150000Y-96570000D01*
X147310727Y-96538029D01*
X147446985Y-96446985D01*
X154496985Y-89396985D01*
X154588029Y-89260727D01*
X154620000Y-89100000D01*
X154620000Y-88856781D01*
X154725304Y-88751661D01*
X154819893Y-88523867D01*
X154820108Y-88277215D01*
X154725917Y-88049257D01*
X154551661Y-87874696D01*
X154323867Y-87780107D01*
X154077215Y-87779892D01*
X153849257Y-87874083D01*
X153674696Y-88048339D01*
X153580107Y-88276133D01*
X153579892Y-88522785D01*
X153674083Y-88750743D01*
X153780000Y-88856845D01*
X153780000Y-88926030D01*
X146976030Y-95730000D01*
X128984202Y-95730000D01*
X128907631Y-95544685D01*
X128606898Y-95243427D01*
X128213770Y-95080186D01*
X127788098Y-95079814D01*
X127394685Y-95242369D01*
X127093427Y-95543102D01*
X126930186Y-95936230D01*
X126929814Y-96361902D01*
X126395000Y-96361902D01*
X126395000Y-93821902D01*
X126929814Y-93821902D01*
X127092369Y-94215315D01*
X127393102Y-94516573D01*
X127786230Y-94679814D01*
X128211902Y-94680186D01*
X128605315Y-94517631D01*
X128906573Y-94216898D01*
X129069814Y-93823770D01*
X129070186Y-93398098D01*
X128907631Y-93004685D01*
X128606898Y-92703427D01*
X128213770Y-92540186D01*
X127788098Y-92539814D01*
X127394685Y-92702369D01*
X127093427Y-93003102D01*
X126930186Y-93396230D01*
X126929814Y-93821902D01*
X126395000Y-93821902D01*
X126395000Y-91281902D01*
X126929814Y-91281902D01*
X127092369Y-91675315D01*
X127393102Y-91976573D01*
X127786230Y-92139814D01*
X128211902Y-92140186D01*
X128605315Y-91977631D01*
X128906573Y-91676898D01*
X129069814Y-91283770D01*
X129070186Y-90858098D01*
X128907631Y-90464685D01*
X128606898Y-90163427D01*
X128213770Y-90000186D01*
X127788098Y-89999814D01*
X127394685Y-90162369D01*
X127093427Y-90463102D01*
X126930186Y-90856230D01*
X126929814Y-91281902D01*
X126395000Y-91281902D01*
X126395000Y-88741902D01*
X126929814Y-88741902D01*
X127092369Y-89135315D01*
X127393102Y-89436573D01*
X127786230Y-89599814D01*
X128211902Y-89600186D01*
X128605315Y-89437631D01*
X128906573Y-89136898D01*
X129069814Y-88743770D01*
X129070186Y-88318098D01*
X128907631Y-87924685D01*
X128606898Y-87623427D01*
X128213770Y-87460186D01*
X127788098Y-87459814D01*
X127394685Y-87622369D01*
X127093427Y-87923102D01*
X126930186Y-88316230D01*
X126929814Y-88741902D01*
X126395000Y-88741902D01*
X126395000Y-86602553D01*
X127422802Y-86602553D01*
X127511032Y-86705539D01*
X127822078Y-86838192D01*
X128160210Y-86841715D01*
X128473952Y-86715573D01*
X128488968Y-86705539D01*
X128577198Y-86602553D01*
X128000000Y-86025355D01*
X127422802Y-86602553D01*
X126395000Y-86602553D01*
X126395000Y-86150210D01*
X127148285Y-86150210D01*
X127274427Y-86463952D01*
X127284461Y-86478968D01*
X127387447Y-86567198D01*
X127964645Y-85990000D01*
X128035355Y-85990000D01*
X128612553Y-86567198D01*
X128715539Y-86478968D01*
X128848192Y-86167922D01*
X128851715Y-85829790D01*
X128725573Y-85516048D01*
X128715539Y-85501032D01*
X128612553Y-85412802D01*
X128035355Y-85990000D01*
X127964645Y-85990000D01*
X127387447Y-85412802D01*
X127284461Y-85501032D01*
X127151808Y-85812078D01*
X127148285Y-86150210D01*
X126395000Y-86150210D01*
X126395000Y-85377447D01*
X127422802Y-85377447D01*
X128000000Y-85954645D01*
X128577198Y-85377447D01*
X128488968Y-85274461D01*
X128177922Y-85141808D01*
X127839790Y-85138285D01*
X127526048Y-85264427D01*
X127511032Y-85274461D01*
X127422802Y-85377447D01*
X126395000Y-85377447D01*
X126395000Y-83661902D01*
X126929814Y-83661902D01*
X127092369Y-84055315D01*
X127393102Y-84356573D01*
X127786230Y-84519814D01*
X128211902Y-84520186D01*
X128605315Y-84357631D01*
X128906573Y-84056898D01*
X129069814Y-83663770D01*
X129070186Y-83238098D01*
X128907631Y-82844685D01*
X128606898Y-82543427D01*
X128213770Y-82380186D01*
X127788098Y-82379814D01*
X127394685Y-82542369D01*
X127093427Y-82843102D01*
X126930186Y-83236230D01*
X126929814Y-83661902D01*
X126395000Y-83661902D01*
X126395000Y-81121902D01*
X126929814Y-81121902D01*
X127092369Y-81515315D01*
X127393102Y-81816573D01*
X127786230Y-81979814D01*
X128211902Y-81980186D01*
X128605315Y-81817631D01*
X128906573Y-81516898D01*
X129069814Y-81123770D01*
X129070186Y-80698098D01*
X128907631Y-80304685D01*
X128606898Y-80003427D01*
X128213770Y-79840186D01*
X127788098Y-79839814D01*
X127394685Y-80002369D01*
X127093427Y-80303102D01*
X126930186Y-80696230D01*
X126929814Y-81121902D01*
X126395000Y-81121902D01*
X126395000Y-81038904D01*
X126524323Y-80388755D01*
X126870565Y-79870565D01*
X127388755Y-79524323D01*
X128038903Y-79395000D01*
X137961098Y-79395000D01*
X138037220Y-79410142D01*
M02*
