G04 #@! TF.FileFunction,Legend,Top*
%FSLAX46Y46*%
G04 Gerber Fmt 4.6, Leading zero omitted, Abs format (unit mm)*
G04 Created by KiCad (PCBNEW 4.0.6-e0-6349~53~ubuntu14.04.1) date Mon Apr  3 00:26:58 2017*
%MOMM*%
%LPD*%
G01*
G04 APERTURE LIST*
%ADD10C,0.100000*%
%ADD11C,0.150000*%
%ADD12C,0.304800*%
G04 APERTURE END LIST*
D10*
D11*
X133100000Y-81575000D02*
X132100000Y-81575000D01*
X132100000Y-80225000D02*
X133100000Y-80225000D01*
X133100000Y-84075000D02*
X132100000Y-84075000D01*
X132100000Y-82725000D02*
X133100000Y-82725000D01*
D12*
X142096000Y-79519000D02*
X142096000Y-81424000D01*
X150224000Y-81424000D02*
X150224000Y-79519000D01*
X150224000Y-79519000D02*
X142096000Y-79519000D01*
X136000000Y-81424000D02*
X142096000Y-81424000D01*
X150224000Y-81424000D02*
X156320000Y-81424000D01*
X136000000Y-114952000D02*
X137524000Y-118000000D01*
X137524000Y-118000000D02*
X154796000Y-118000000D01*
X154796000Y-118000000D02*
X156320000Y-114952000D01*
X136000000Y-81424000D02*
X136000000Y-84345000D01*
X156320000Y-81424000D02*
X156320000Y-84345000D01*
D11*
X134583334Y-81216667D02*
X134350000Y-80883333D01*
X134183334Y-81216667D02*
X134183334Y-80516667D01*
X134450000Y-80516667D01*
X134516667Y-80550000D01*
X134550000Y-80583333D01*
X134583334Y-80650000D01*
X134583334Y-80750000D01*
X134550000Y-80816667D01*
X134516667Y-80850000D01*
X134450000Y-80883333D01*
X134183334Y-80883333D01*
X135250000Y-81216667D02*
X134850000Y-81216667D01*
X135050000Y-81216667D02*
X135050000Y-80516667D01*
X134983334Y-80616667D01*
X134916667Y-80683333D01*
X134850000Y-80716667D01*
X134583334Y-83716667D02*
X134350000Y-83383333D01*
X134183334Y-83716667D02*
X134183334Y-83016667D01*
X134450000Y-83016667D01*
X134516667Y-83050000D01*
X134550000Y-83083333D01*
X134583334Y-83150000D01*
X134583334Y-83250000D01*
X134550000Y-83316667D01*
X134516667Y-83350000D01*
X134450000Y-83383333D01*
X134183334Y-83383333D01*
X134850000Y-83083333D02*
X134883334Y-83050000D01*
X134950000Y-83016667D01*
X135116667Y-83016667D01*
X135183334Y-83050000D01*
X135216667Y-83083333D01*
X135250000Y-83150000D01*
X135250000Y-83216667D01*
X135216667Y-83316667D01*
X134816667Y-83716667D01*
X135250000Y-83716667D01*
X145538095Y-98852381D02*
X145538095Y-99661905D01*
X145585714Y-99757143D01*
X145633333Y-99804762D01*
X145728571Y-99852381D01*
X145919048Y-99852381D01*
X146014286Y-99804762D01*
X146061905Y-99757143D01*
X146109524Y-99661905D01*
X146109524Y-98852381D01*
X147109524Y-99852381D02*
X146538095Y-99852381D01*
X146823809Y-99852381D02*
X146823809Y-98852381D01*
X146728571Y-98995238D01*
X146633333Y-99090476D01*
X146538095Y-99138095D01*
M02*
