M48
;DRILL file {KiCad 4.0.6-e0-6349~53~ubuntu14.04.1} date Thu Apr  6 14:19:23 2017
;FORMAT={-:-/ absolute / inch / decimal}
FMAT,2
INCH,TZ
T1C0.012
T2C0.037
%
G90
G05
M72
T1
X5.2756Y-3.9843
X5.2756Y-4.0787
X5.4567Y-3.4803
X6.0472Y-3.685
X6.0709Y-3.4803
X6.2362Y-4.3543
X6.2362Y-4.4567
T2
X5.0394Y-3.1854
X5.0394Y-3.2854
X5.0394Y-3.3854
X5.0394Y-3.4854
X5.0394Y-3.5854
X5.0394Y-3.6854
X5.0394Y-3.7854
X5.0394Y-3.8854
X5.0394Y-3.9854
X5.0394Y-4.0854
X5.0394Y-4.1854
X5.0394Y-4.2854
X5.0394Y-4.3854
X5.0394Y-4.4854
X5.0394Y-4.5854
X5.0394Y-4.6854
X5.0394Y-4.7854
X5.0394Y-4.8854
T0
M30
